# Blender v2.71 (sub 0) OBJ File: ''
# www.blender.org
mtllib leftflip.mtl
o Cube
v 0.575139 -0.240626 -0.698584
v 0.265384 -0.240626 0.698584
v -0.372501 -0.240626 0.698584
v -0.575139 -0.240626 -0.698584
v 0.575139 0.240626 -0.698584
v 0.265383 0.240626 0.698584
v -0.372501 0.240626 0.698584
v -0.575139 0.240626 -0.698584
v 0.472630 -0.240626 -0.854742
v -0.456788 -0.240626 -0.854742
v 0.472630 0.240626 -0.854741
v -0.456788 0.240626 -0.854742
v 0.244462 -0.240626 -0.965332
v -0.228318 -0.240626 -0.965332
v 0.244463 0.240626 -0.965331
v -0.228319 0.240626 -0.965332
v 0.108664 -0.240626 -0.992458
v -0.110569 -0.240626 -0.992458
v 0.108664 0.240626 -0.992457
v -0.110570 0.240626 -0.992458
v 0.132700 -0.240627 1.266454
v -0.290651 -0.240627 1.266454
v 0.132700 0.240626 1.266454
v -0.290651 0.240626 1.266454
v 0.085668 -0.240627 1.326325
v -0.232396 -0.240627 1.326325
v 0.085668 0.240626 1.326325
v -0.232397 0.240626 1.326325
v 0.043128 -0.240627 1.354369
v -0.177669 -0.240627 1.354369
v 0.043127 0.240626 1.354370
v -0.177669 0.240626 1.354369
v -0.030068 -0.240627 1.382898
v -0.125073 -0.240627 1.382898
v -0.030068 0.240626 1.382899
v -0.125073 0.240626 1.382898
v -0.541902 0.240626 -0.776663
v 0.541981 0.240626 -0.776662
v -0.541902 -0.240626 -0.776663
v 0.541981 -0.240626 -0.776663
v 0.605955 -0.240626 -0.712282
v 0.280518 -0.240626 0.706817
v -0.389660 -0.240626 0.706817
v -0.602556 -0.240626 -0.712282
v 0.605955 0.240626 -0.712281
v 0.280518 0.240626 0.706817
v -0.389660 0.240626 0.706817
v -0.602556 0.240626 -0.712282
v 0.498256 -0.240626 -0.870891
v -0.478214 -0.240626 -0.870891
v 0.498257 0.240626 -0.870890
v -0.478214 0.240626 -0.870891
v 0.258538 -0.240626 -0.983216
v -0.238178 -0.240626 -0.983217
v 0.258538 0.240626 -0.983216
v -0.238178 0.240626 -0.983216
v 0.115864 -0.240626 -1.010768
v -0.114468 -0.240626 -1.010769
v 0.115865 0.240626 -1.010768
v -0.114468 0.240626 -1.010768
v 0.141118 -0.240627 1.283600
v -0.303666 -0.240627 1.283600
v 0.141117 0.240626 1.283601
v -0.303666 0.240626 1.283600
v 0.091705 -0.240627 1.344411
v -0.242462 -0.240627 1.344411
v 0.091704 0.240626 1.344412
v -0.242462 0.240626 1.344411
v 0.047011 -0.240627 1.372896
v -0.184964 -0.240627 1.372896
v 0.047010 0.240626 1.372896
v -0.184964 0.240626 1.372896
v -0.029891 -0.240627 1.401872
v -0.129706 -0.240627 1.401872
v -0.029891 0.240626 1.401873
v -0.129706 0.240626 1.401872
v -0.567637 0.240626 -0.791586
v 0.571119 0.240626 -0.791586
v -0.567637 -0.240626 -0.791587
v 0.571119 -0.240626 -0.791586
v 0.575139 0.257036 -0.698584
v 0.265383 0.257036 0.698584
v -0.372501 0.257036 0.698584
v -0.575139 0.257036 -0.698584
v 0.472630 0.257036 -0.854741
v -0.456788 0.257036 -0.854742
v 0.244463 0.257036 -0.965331
v -0.228319 0.257036 -0.965332
v 0.108664 0.257036 -0.992457
v -0.110570 0.257036 -0.992458
v 0.132700 0.257036 1.266454
v -0.290651 0.257036 1.266454
v 0.085668 0.257036 1.326325
v -0.232397 0.257036 1.326325
v 0.043127 0.257036 1.354370
v -0.177669 0.257036 1.354369
v -0.030068 0.257036 1.382899
v -0.125073 0.257036 1.382898
v -0.541902 0.257036 -0.776663
v 0.541981 0.257036 -0.776662
v 0.605955 0.257036 -0.712281
v 0.280518 0.257036 0.706817
v -0.389660 0.257036 0.706817
v -0.602556 0.257036 -0.712282
v 0.498257 0.257036 -0.870890
v -0.478214 0.257036 -0.870891
v 0.258538 0.257036 -0.983216
v -0.238178 0.257036 -0.983216
v 0.115865 0.257036 -1.010768
v -0.114468 0.257036 -1.010768
v 0.141117 0.257036 1.283601
v -0.303666 0.257036 1.283600
v 0.091704 0.257036 1.344412
v -0.242462 0.257036 1.344411
v 0.047010 0.257036 1.372896
v -0.184964 0.257036 1.372896
v -0.029891 0.257036 1.401873
v -0.129706 0.257036 1.401872
v -0.567637 0.257036 -0.791586
v 0.571119 0.257036 -0.791586
vt 0.599807 0.037209
vt 0.602481 0.352035
vt 0.442350 0.397272
vt 0.419312 0.487625
vt 0.403842 0.366440
vt 0.698216 0.390287
vt 0.283062 0.670441
vt 0.272841 0.670441
vt 0.272841 0.613204
vt 0.706795 0.457490
vt 0.817855 0.399926
vt 0.616975 0.986399
vt 0.606754 0.986399
vt 0.606754 0.666120
vt 0.387991 0.369802
vt 0.402568 0.483992
vt 0.385337 0.476546
vt 0.372837 0.378629
vt 0.359183 0.452310
vt 0.293283 0.595321
vt 0.283062 0.595321
vt 0.283062 0.580637
vt 0.513659 0.518917
vt 0.529012 0.520914
vt 0.528247 0.525315
vt 0.314897 0.100061
vt 0.331768 0.077659
vt 0.565084 0.011747
vt 0.351694 0.437955
vt 0.348746 0.414858
vt 0.926947 0.990249
vt 0.916726 0.990249
vt 0.916726 0.975285
vt 0.937168 0.629744
vt 0.926947 0.629744
vt 0.926947 0.518768
vt 0.382756 0.038276
vt 0.501439 0.004747
vt 0.606754 0.032152
vt 0.601864 0.480475
vt 0.604964 0.483472
vt 0.596061 0.499723
vt 0.410753 0.024239
vt 0.379251 0.035226
vt 0.831136 0.406170
vt 0.835414 0.439679
vt 0.000000 0.537836
vt 0.000000 0.527470
vt 0.058143 0.527469
vt 0.283062 0.583379
vt 0.272841 0.583379
vt 0.272841 0.527469
vt 0.495589 0.510499
vt 0.837726 0.411986
vt 0.840696 0.435248
vt 0.503943 0.000000
vt 0.570587 0.006544
vt 0.586988 0.023194
vt 0.593443 0.018000
vt 0.593504 0.496360
vt 0.844389 0.417578
vt 0.906750 0.010366
vt 0.906750 0.000000
vt 0.925580 0.000000
vt 0.283062 0.790869
vt 0.272841 0.790869
vt 0.272841 0.770122
vt 0.584440 0.505255
vt 0.937168 0.944618
vt 0.926947 0.944618
vt 0.926947 0.921549
vt 0.966466 0.010366
vt 0.966466 0.000000
vt 0.982217 0.000000
vt 0.616975 0.535367
vt 0.606754 0.535367
vt 0.606754 0.518768
vt 0.567707 0.516426
vt 0.543858 0.523164
vt 0.512174 0.523422
vt 0.586481 0.508863
vt 0.568844 0.520391
vt 0.311048 0.118784
vt 0.626704 0.651495
vt 0.535566 0.651495
vt 0.535566 0.554115
vt 0.529350 0.548370
vt 0.529350 0.637936
vt 0.438212 0.637936
vt 0.529350 0.643586
vt 0.529350 0.649985
vt 0.438212 0.649985
vt 0.430933 0.515111
vt 0.430933 0.607543
vt 0.424439 0.607543
vt 0.347977 0.515111
vt 0.365655 0.515111
vt 0.365655 0.607543
vt 0.424439 0.515111
vt 0.404550 0.607543
vt 0.393104 0.515111
vt 0.393104 0.607543
vt 0.375068 0.607543
vt 0.375068 0.515111
vt 0.404550 0.515111
vt 0.438212 0.548370
vt 0.438212 0.511959
vt 0.626704 0.554115
vt 0.535566 0.514360
vt 0.622236 0.533396
vt 0.622236 0.625828
vt 0.616829 0.625828
vt 0.626704 0.514360
vt 0.535566 0.509314
vt 0.612040 0.625828
vt 0.612040 0.533396
vt 0.590674 0.625828
vt 0.590674 0.533396
vt 0.593884 0.533396
vt 0.599609 0.625828
vt 0.599609 0.533396
vt 0.607421 0.533396
vt 0.607421 0.625828
vt 0.593884 0.625828
vt 0.438212 0.643586
vt 0.626704 0.655630
vt 0.408720 0.020678
vt 0.466541 0.004343
vt 0.293283 0.555821
vt 0.283062 0.555821
vt 0.283062 0.537650
vt 0.926947 0.975285
vt 0.916726 0.847543
vt 0.465788 0.008692
vt 0.303377 0.117857
vt 0.307577 0.098758
vt 0.293283 0.610547
vt 0.283062 0.610547
vt 0.925580 0.010366
vt 0.951275 0.000000
vt 0.493309 0.515016
vt 0.543787 0.527470
vt 0.283062 0.706813
vt 0.272841 0.706813
vt 0.937168 0.921549
vt 0.926947 0.902685
vt 0.896194 0.010366
vt 0.896194 0.000000
vt 0.438517 0.400215
vt 0.148421 0.537836
vt 0.148421 0.527469
vt 0.186067 0.527469
vt 0.325460 0.075793
vt 0.606754 0.352687
vt 0.398151 0.578501
vt 0.400992 0.597328
vt 0.399300 0.597975
vt 0.626068 0.569056
vt 0.627779 0.568401
vt 0.631320 0.573100
vt 0.621518 0.595847
vt 0.626745 0.591714
vt 0.628587 0.592204
vt 0.559613 0.553354
vt 0.560193 0.551867
vt 0.617536 0.558347
vt 0.399270 0.568347
vt 0.397399 0.567528
vt 0.405240 0.546739
vt 0.419133 0.628367
vt 0.427643 0.634200
vt 0.426565 0.636726
vt 0.407091 0.548553
vt 0.411812 0.538935
vt 0.628928 0.588017
vt 0.630761 0.581686
vt 0.632613 0.581672
vt 0.567877 0.608132
vt 0.623299 0.596543
vt 0.622625 0.564400
vt 0.624257 0.563507
vt 0.405395 0.608947
vt 0.403834 0.610184
vt 0.420781 0.538145
vt 0.413600 0.541122
vt 0.419091 0.535812
vt 0.435684 0.636925
vt 0.434748 0.639593
vt 0.568876 0.609419
vt 0.417890 0.630593
vt 0.396316 0.578195
vt 0.616033 0.559492
vt 0.630785 0.588321
vt 0.629530 0.573528
vt 0.089101 0.537836
vt 0.089101 0.527469
vt 0.616975 0.666120
vt 0.596533 0.960385
vt 0.606754 0.960385
vt 0.606754 0.981434
vt 0.982217 0.010366
vt 1.000000 0.000000
vt 0.937168 0.902685
vt 0.926947 0.534005
vt 0.916726 0.534005
vt 0.916726 0.518768
vt 0.596533 0.941804
vt 0.606754 0.941804
vt 0.951275 0.010366
vt 0.926947 0.847543
vt 0.283062 0.770122
vt 0.186067 0.537836
vt 0.251480 0.527469
vt 0.596533 0.647224
vt 0.606754 0.647224
vt 0.283062 0.613204
vt 0.058143 0.537836
vt 0.293283 0.627750
vt 0.283062 0.627750
vt 0.596533 0.527470
vt 0.606754 0.527470
vt 0.293283 0.537650
vt 0.283062 0.527469
vt 0.616975 1.000000
vt 0.606754 1.000000
vt 0.293283 0.580637
vt 0.251480 0.537836
vt 0.823549 0.444527
vt 0.352825 0.402501
vt 0.937168 0.518768
vt 0.845667 0.427587
vt 0.616975 0.518768
vt 0.347977 0.607543
vt 0.529350 0.511959
vt 0.616829 0.533396
vt 0.626704 0.509314
vt 0.535566 0.655630
vt 0.596533 0.981434
vt 1.000000 0.010366
vt 0.293283 0.527469
vt 0.272841 0.537835
vn 0.000000 -1.000000 0.000000
vn 0.000000 1.000000 -0.000000
vn -0.000000 0.000000 1.000000
vn 0.974700 0.000000 0.223500
vn 0.476800 0.000000 -0.879000
vn -0.786400 0.000000 -0.617700
vn 0.989800 0.000000 -0.142700
vn -0.423800 0.000000 -0.905700
vn 0.435700 0.000000 0.900100
vn 0.352600 0.000000 0.935800
vn -0.747700 0.000000 0.664100
vn 0.676000 0.000000 0.736900
vn -0.443900 0.000000 0.896100
vn 0.776100 0.000000 0.630600
vn -0.988900 -0.000000 0.148400
vn -0.663500 0.000000 -0.748200
vn 0.736400 0.000000 -0.676600
vn 0.424300 0.000000 -0.905500
vn 0.000000 0.000000 -1.000000
vn -0.217400 0.000000 -0.976100
vn 0.189600 0.000000 -0.981900
vn -0.989100 -0.000000 0.147500
vn 0.972000 0.000000 0.234900
vn -0.704800 -0.000000 0.709400
vn 0.537500 -0.000000 0.843300
vn -0.464400 0.000000 0.885600
vn -0.915200 0.000000 -0.403000
vn 0.915600 -0.000000 -0.402200
vn -0.363200 0.000000 -0.931700
vn -0.973800 0.000000 -0.227500
vn 0.456000 0.000000 -0.890000
vn -0.195900 0.000000 0.980600
vn 0.920100 0.000000 0.391700
vn 0.989600 0.000000 -0.143500
vn -0.920400 0.000000 0.390900
vn -0.976300 0.000000 -0.216400
vn -0.436200 0.000000 0.899900
vn 0.224500 0.000000 0.974500
vn 0.716700 0.000000 -0.697400
vn -0.550400 0.000000 -0.834900
usemtl Material
s off
f 1/1/1 2/2/1 3/3/1
f 5/4/2 8/5/2 7/6/2
f 19/7/3 89/8/3 90/9/3
f 6/10/2 7/6/2 24/11/2
f 45/12/4 101/13/4 102/14/4
f 37/15/2 38/16/2 11/17/2
f 12/18/2 11/17/2 15/19/2
f 32/20/5 96/21/5 98/22/5
f 26/23/1 30/24/1 70/25/1
f 39/26/1 10/27/1 9/28/1
f 15/19/2 19/29/2 20/30/2
f 27/31/6 93/32/6 91/33/6
f 7/34/7 83/35/7 92/36/7
f 10/27/1 14/37/1 13/38/1
f 2/2/1 1/1/1 41/39/1
f 21/40/1 61/41/1 65/42/1
f 18/43/1 14/37/1 54/44/1
f 13/38/1 14/37/1 18/43/1
f 24/11/2 28/45/2 27/46/2
f 52/47/8 106/48/8 108/49/8
f 16/50/9 88/51/9 86/52/9
f 2/2/1 21/40/1 22/53/1
f 28/45/2 32/54/2 31/55/2
f 13/38/1 53/56/1 49/57/1
f 1/1/1 40/58/1 80/59/1
f 22/53/1 21/40/1 25/60/1
f 31/55/2 32/54/2 36/61/2
f 71/62/10 115/63/10 117/64/10
f 38/65/11 100/66/11 85/67/11
f 26/23/1 25/60/1 29/68/1
f 12/69/12 86/70/12 99/71/12
f 72/72/13 116/73/13 114/74/13
f 63/75/14 111/76/14 113/77/14
f 29/68/1 33/78/1 34/79/1
f 8/5/2 5/4/2 38/16/2
f 22/53/1 26/23/1 66/80/1
f 29/68/1 69/81/1 73/82/1
f 4/83/1 39/26/1 40/58/1
f 41/84/4 45/85/4 46/86/4
f 47/87/15 48/88/15 44/89/15
f 77/90/16 52/91/16 50/92/16
f 78/93/17 80/94/17 49/95/17
f 52/96/8 56/97/8 54/98/8
f 51/99/18 49/95/18 53/100/18
f 59/101/19 57/102/19 58/103/19
f 56/97/20 60/104/20 58/103/20
f 55/105/21 53/100/21 57/102/21
f 47/87/22 43/106/22 62/107/22
f 42/108/23 46/86/23 63/109/23
f 64/110/24 62/111/24 66/112/24
f 61/113/14 63/109/14 67/114/14
f 66/112/13 70/115/13 72/116/13
f 65/117/25 67/118/25 71/119/25
f 73/120/3 75/121/3 76/122/3
f 70/115/26 74/123/26 76/122/26
f 69/124/10 71/119/10 75/121/10
f 48/88/27 77/90/27 79/125/27
f 45/85/28 41/84/28 80/126/28
f 18/43/1 58/127/1 57/128/1
f 35/129/29 97/130/29 95/131/29
f 23/132/30 91/33/30 82/133/30
f 17/134/1 57/128/1 53/56/1
f 4/83/1 44/135/1 79/136/1
f 25/60/1 65/42/1 69/81/1
f 28/137/31 94/138/31 96/21/31
f 75/139/3 117/64/3 118/140/3
f 3/3/1 22/53/1 62/141/1
f 30/24/1 34/79/1 74/142/1
f 15/143/32 87/144/32 89/8/32
f 37/145/33 99/71/33 84/146/33
f 67/147/25 113/148/25 115/63/25
f 3/3/1 43/149/1 44/135/1
f 59/150/21 109/151/21 107/152/21
f 10/27/1 39/26/1 79/136/1
f 9/28/1 49/57/1 80/59/1
f 14/37/1 10/27/1 50/153/1
f 2/2/1 42/154/1 61/41/1
f 33/78/1 73/82/1 74/142/1
f 90/155/2 89/156/2 109/157/2
f 96/158/2 116/159/2 118/160/2
f 91/161/2 93/162/2 113/163/2
f 83/164/2 103/165/2 112/166/2
f 88/167/2 108/168/2 106/169/2
f 85/170/2 100/171/2 120/172/2
f 86/173/2 106/169/2 119/174/2
f 95/175/2 97/176/2 117/177/2
f 82/178/2 91/161/2 111/179/2
f 94/180/2 114/181/2 116/159/2
f 89/156/2 87/182/2 107/183/2
f 84/184/2 99/185/2 119/174/2
f 83/164/2 84/184/2 104/186/2
f 81/187/2 101/188/2 120/172/2
f 82/178/2 102/189/2 101/188/2
f 87/182/2 85/170/2 105/190/2
f 90/155/2 110/191/2 108/168/2
f 92/192/2 112/166/2 114/181/2
f 93/162/2 95/175/2 115/193/2
f 97/176/2 98/194/2 118/160/2
f 60/195/19 110/196/19 109/151/19
f 46/197/23 102/14/23 111/76/23
f 77/198/16 119/199/16 106/200/16
f 68/201/24 114/74/24 112/202/24
f 8/203/34 84/146/34 83/35/34
f 5/204/35 81/205/35 100/206/35
f 48/207/27 104/208/27 119/199/27
f 76/209/26 118/140/26 116/73/26
f 6/210/36 82/133/36 81/205/36
f 11/211/37 85/67/37 87/144/37
f 55/212/18 107/152/18 105/213/18
f 47/214/15 103/215/15 104/208/15
f 20/216/38 90/9/38 88/51/38
f 56/217/20 108/49/20 110/196/20
f 28/137/39 24/218/39 92/219/39
f 64/220/22 112/221/22 103/215/22
f 31/222/40 95/131/40 93/223/40
f 78/224/28 120/225/28 101/13/28
f 36/226/19 98/22/19 97/130/19
f 51/227/17 105/213/17 120/52/17
f 4/83/1 1/1/1 3/3/1
f 6/10/2 5/4/2 7/6/2
f 20/216/3 19/7/3 90/9/3
f 23/228/2 6/10/2 24/11/2
f 46/197/4 45/12/4 102/14/4
f 12/18/2 37/15/2 11/17/2
f 16/229/2 12/18/2 15/19/2
f 36/226/5 32/20/5 98/22/5
f 66/80/1 26/23/1 70/25/1
f 40/58/1 39/26/1 9/28/1
f 16/229/2 15/19/2 20/30/2
f 23/132/6 27/31/6 91/33/6
f 24/230/7 7/34/7 92/36/7
f 9/28/1 10/27/1 13/38/1
f 42/154/1 2/2/1 41/39/1
f 25/60/1 21/40/1 65/42/1
f 58/127/1 18/43/1 54/44/1
f 17/134/1 13/38/1 18/43/1
f 23/228/2 24/11/2 27/46/2
f 56/217/8 52/47/8 108/49/8
f 12/223/9 16/50/9 86/52/9
f 3/3/1 2/2/1 22/53/1
f 27/46/2 28/45/2 31/55/2
f 9/28/1 13/38/1 49/57/1
f 41/39/1 1/1/1 80/59/1
f 26/23/1 22/53/1 25/60/1
f 35/231/2 31/55/2 36/61/2
f 75/139/10 71/62/10 117/64/10
f 11/211/11 38/65/11 85/67/11
f 30/24/1 26/23/1 29/68/1
f 37/145/12 12/69/12 99/71/12
f 68/201/13 72/72/13 114/74/13
f 67/232/14 63/75/14 113/77/14
f 30/24/1 29/68/1 34/79/1
f 37/15/2 8/5/2 38/16/2
f 62/141/1 22/53/1 66/80/1
f 33/78/1 29/68/1 73/82/1
f 1/1/1 4/83/1 40/58/1
f 42/108/4 41/84/4 46/86/4
f 43/106/15 47/87/15 44/89/15
f 79/125/16 77/90/16 50/92/16
f 51/99/17 78/93/17 49/95/17
f 50/233/8 52/96/8 54/98/8
f 55/105/18 51/99/18 53/100/18
f 60/104/19 59/101/19 58/103/19
f 54/98/20 56/97/20 58/103/20
f 59/101/21 55/105/21 57/102/21
f 64/234/22 47/87/22 62/107/22
f 61/113/23 42/108/23 63/109/23
f 68/235/24 64/110/24 66/112/24
f 65/236/14 61/113/14 67/114/14
f 68/235/13 66/112/13 72/116/13
f 69/124/25 65/117/25 71/119/25
f 74/123/3 73/120/3 76/122/3
f 72/116/26 70/115/26 76/122/26
f 73/120/10 69/124/10 75/121/10
f 44/89/27 48/88/27 79/125/27
f 78/237/28 45/85/28 80/126/28
f 17/134/1 18/43/1 57/128/1
f 31/222/29 35/129/29 95/131/29
f 6/210/30 23/132/30 82/133/30
f 13/38/1 17/134/1 53/56/1
f 39/26/1 4/83/1 79/136/1
f 29/68/1 25/60/1 69/81/1
f 32/20/31 28/137/31 96/21/31
f 76/209/3 75/139/3 118/140/3
f 43/149/1 3/3/1 62/141/1
f 70/25/1 30/24/1 74/142/1
f 19/7/32 15/143/32 89/8/32
f 8/203/33 37/145/33 84/146/33
f 71/62/25 67/147/25 115/63/25
f 4/83/1 3/3/1 44/135/1
f 55/212/21 59/150/21 107/152/21
f 50/153/1 10/27/1 79/136/1
f 40/58/1 9/28/1 80/59/1
f 54/44/1 14/37/1 50/153/1
f 21/40/1 2/2/1 61/41/1
f 34/79/1 33/78/1 74/142/1
f 110/191/2 90/155/2 109/157/2
f 98/194/2 96/158/2 118/160/2
f 111/179/2 91/161/2 113/163/2
f 92/192/2 83/164/2 112/166/2
f 86/173/2 88/167/2 106/169/2
f 105/190/2 85/170/2 120/172/2
f 99/185/2 86/173/2 119/174/2
f 115/193/2 95/175/2 117/177/2
f 102/189/2 82/178/2 111/179/2
f 96/158/2 94/180/2 116/159/2
f 109/157/2 89/156/2 107/183/2
f 104/186/2 84/184/2 119/174/2
f 103/165/2 83/164/2 104/186/2
f 100/171/2 81/187/2 120/172/2
f 81/187/2 82/178/2 101/188/2
f 107/183/2 87/182/2 105/190/2
f 88/167/2 90/155/2 108/168/2
f 94/180/2 92/192/2 114/181/2
f 113/163/2 93/162/2 115/193/2
f 117/177/2 97/176/2 118/160/2
f 59/150/19 60/195/19 109/151/19
f 63/75/23 46/197/23 111/76/23
f 52/238/16 77/198/16 106/200/16
f 64/239/24 68/201/24 112/202/24
f 7/34/34 8/203/34 83/35/34
f 38/36/35 5/204/35 100/206/35
f 77/198/27 48/207/27 119/199/27
f 72/72/26 76/209/26 116/73/26
f 5/204/36 6/210/36 81/205/36
f 15/143/37 11/211/37 87/144/37
f 51/227/18 55/212/18 105/213/18
f 48/207/15 47/214/15 104/208/15
f 16/50/38 20/216/38 88/51/38
f 60/195/20 56/217/20 110/196/20
f 94/138/39 28/137/39 92/219/39
f 47/214/22 64/220/22 103/215/22
f 27/240/40 31/222/40 93/223/40
f 45/12/28 78/224/28 101/13/28
f 35/129/19 36/226/19 97/130/19
f 78/241/17 51/227/17 120/52/17
