# Blender v2.71 (sub 0) OBJ File: 'slingshotrightblend.blend'
# www.blender.org
mtllib slingshotright.mtl
o Cube
v 0.791198 -0.007871 0.520387
v 0.647196 0.017830 -2.543725
v -1.214382 0.011506 -1.789846
v -1.208801 -0.007871 0.520387
v 1.000000 -0.684000 0.576260
v 0.855997 -0.658300 -2.487853
v -1.005581 -0.664623 -1.733973
v -1.000000 -0.684000 0.576260
v 1.841004 -0.007871 0.520387
v 1.841004 0.008904 -1.479543
v 2.049806 -0.684000 0.576259
v 2.049805 -0.667226 -1.423670
v 2.667624 -0.007370 0.460681
v 2.715138 0.002214 -0.682002
v 2.876426 -0.683500 0.516554
v 2.923939 -0.673915 -0.626129
v 3.009778 -0.003138 -0.043939
v 2.967168 -0.000277 -0.385039
v 3.218580 -0.679267 0.011933
v 3.175969 -0.676406 -0.329167
v -3.636331 0.001563 -0.604334
v -3.630750 -0.008028 0.539061
v -3.427530 -0.674567 -0.548461
v -3.421949 -0.684157 0.594934
v -3.916872 -0.001458 -0.244133
v -3.876295 -0.005314 0.215529
v -3.708071 -0.677588 -0.188260
v -3.667494 -0.681443 0.271402
v 0.542954 -0.007871 0.520387
v 0.416133 0.018014 -2.565706
v 0.751756 -0.684000 0.576260
v 0.624934 -0.658115 -2.509833
v 1.187249 -0.684000 0.576260
v 1.068930 -0.659692 -2.321855
v 0.860130 0.016437 -2.377727
v 0.978447 -0.007871 0.520387
v 3.112843 -0.681724 0.304869
v 3.086212 -0.675385 -0.450868
v 2.877411 0.000744 -0.506740
v 2.904041 -0.005595 0.248996
v -3.594009 -0.675781 -0.403600
v -3.564182 -0.683151 0.475048
v -3.772983 -0.007022 0.419175
v -3.802810 0.000348 -0.459473
vt 0.775148 0.661510
vt 0.658451 0.743657
vt 0.245029 0.648535
vt 0.573236 0.629393
vt 0.148798 0.394913
vt 0.152538 0.121315
vt 0.226820 0.087450
vt 0.479539 0.061789
vt 0.846536 0.265352
vt 0.803363 0.905392
vt 0.803363 0.778332
vt 0.938429 0.778332
vt 0.359627 0.920391
vt 0.795791 0.616977
vt 0.933369 0.616977
vt 0.933369 0.742757
vt 0.704225 0.038625
vt 0.909655 0.160605
vt 0.804519 0.860778
vt 0.804519 0.799120
vt 0.919889 0.799120
vt 0.911722 0.875873
vt 0.769912 0.875873
vt 0.769912 0.812035
vt 0.735492 0.622769
vt 0.215357 0.495662
vt 0.203656 0.435375
vt 0.891995 0.110838
vt 0.750928 0.037095
vt 0.781304 0.038768
vt 0.804519 0.744344
vt 0.919889 0.744344
vt 0.911722 0.812035
vt 0.769912 0.750797
vt 0.561482 0.517382
vt 0.203124 0.380048
vt 0.919889 0.703855
vt 0.919889 0.724554
vt 0.804519 0.724554
vt 0.804519 0.732553
vt 0.804519 0.687251
vt 0.919889 0.687251
vt 0.237792 0.372204
vt 0.288769 0.376826
vt 0.350377 0.393791
vt 0.324882 0.925167
vt 0.278254 0.916770
vt 0.190268 0.874827
vt 0.795791 0.742757
vt 0.933369 0.916676
vt 0.795677 0.948105
vt 0.795677 0.672367
vt 0.931856 0.672367
vt 0.479195 0.864323
vt 0.274544 0.817048
vt 0.089765 0.938478
vt 0.089764 0.733433
vt 0.134999 0.733433
vt 0.086343 0.710064
vt 0.086344 0.915109
vt 0.066085 0.915109
vt 0.125946 0.706726
vt 0.146797 0.706726
vt 0.146797 0.911771
vt 0.297924 0.831905
vt 0.455536 0.870019
vt 0.418554 0.869161
vt 0.217897 0.508749
vt 0.768081 0.644459
vt 0.752461 0.390662
vt 0.730215 0.420294
vt 0.699017 0.906976
vt 0.699017 0.885846
vt 0.895441 0.885846
vt 0.769912 0.889731
vt 0.911722 0.889731
vt 0.911722 0.908104
vt 0.177277 0.095971
vt 0.769240 0.368311
vt 0.678444 0.931563
vt 0.678444 0.911718
vt 0.874867 0.911718
vt 0.919889 0.732553
vt 0.911722 0.750797
vt 0.769912 0.733091
vt 0.406928 0.423583
vt 0.160973 0.839294
vt 0.153271 0.888964
vt 0.349694 0.888964
vt 0.349694 0.903382
vt 0.737039 0.887693
vt 0.737039 0.866310
vt 0.933462 0.866310
vt 0.221265 0.526099
vt 0.938429 0.905392
vt 0.149309 0.804678
vt 0.919889 0.860778
vt 0.847716 0.068401
vt 0.804519 0.703855
vt 0.373369 0.405054
vt 0.795791 0.916676
vt 0.931856 0.948105
vt 0.134999 0.938478
vt 0.066085 0.710064
vt 0.125946 0.911771
vt 0.335761 0.847476
vt 0.895441 0.906976
vt 0.769912 0.908104
vt 0.874867 0.931563
vt 0.911722 0.733091
vt 0.153271 0.903382
vt 0.933462 0.887693
vn -0.000000 1.000000 0.008400
vn 0.000000 -1.000000 -0.008400
vn -0.420100 -0.202800 -0.884500
vn 0.000000 0.082400 0.996600
vn 0.668700 0.146300 -0.729000
vn 0.667400 0.145800 -0.730300
vn 0.071600 0.104100 0.992000
vn 0.951600 0.284300 -0.116500
vn 0.790000 0.195900 -0.581000
vn 0.895400 0.303400 0.325800
vn 0.007700 0.084700 0.996400
vn -0.429600 -0.205300 -0.879400
vn -0.954200 -0.287900 0.081800
vn -0.868300 -0.231900 0.438500
vn -0.842700 -0.297300 -0.448900
vn 0.094500 -0.053000 -0.994100
vn 0.610600 0.123900 -0.782200
vn 0.724000 0.168300 -0.668900
vn 0.643400 0.258200 0.720700
vn -0.639200 -0.134800 0.757200
vn -0.633500 -0.256000 -0.730200
usemtl Material
s off
f 30/1/1 3/2/1 4/3/1
f 8/4/2 7/5/2 32/6/2
f 34/7/2 12/8/2 11/9/2
f 32/10/3 7/11/3 3/12/3
f 7/5/2 8/4/2 24/13/2
f 31/14/4 29/15/4 4/16/4
f 12/8/2 16/17/2 15/18/2
f 35/19/5 10/20/5 12/21/5
f 36/22/4 33/23/4 11/24/4
f 35/25/1 36/26/1 9/27/1
f 37/28/2 38/29/2 20/30/2
f 10/20/6 14/31/6 16/32/6
f 9/33/7 11/24/7 15/34/7
f 10/35/1 9/27/1 13/36/1
f 19/37/8 20/38/8 18/39/8
f 39/40/9 18/39/9 20/38/9
f 40/41/10 37/42/10 19/37/10
f 40/43/1 17/44/1 18/45/1
f 42/46/2 28/47/2 27/48/2
f 8/49/11 4/16/11 22/50/11
f 7/51/12 23/52/12 21/53/12
f 3/2/1 21/54/1 22/55/1
f 25/56/13 27/57/13 28/58/13
f 42/59/14 43/60/14 26/61/14
f 41/62/15 27/63/15 25/64/15
f 43/65/1 44/66/1 25/67/1
f 1/68/1 2/69/1 30/1/1
f 5/70/2 31/71/2 32/6/2
f 6/72/16 32/73/16 30/74/16
f 5/75/4 1/76/4 29/77/4
f 6/78/2 34/7/2 33/79/2
f 2/80/17 35/81/17 34/82/17
f 1/76/4 5/75/4 33/23/4
f 2/69/1 1/68/1 36/26/1
f 16/17/2 38/29/2 37/28/2
f 14/31/18 39/40/18 38/83/18
f 13/84/19 15/34/19 37/85/19
f 14/86/1 13/36/1 40/43/1
f 24/13/2 42/46/2 41/87/2
f 24/88/20 22/89/20 43/90/20
f 23/91/21 41/92/21 44/93/21
f 22/55/1 21/54/1 44/66/1
f 29/94/1 30/1/1 4/3/1
f 31/71/2 8/4/2 32/6/2
f 33/79/2 34/7/2 11/9/2
f 30/95/3 32/10/3 3/12/3
f 23/96/2 7/5/2 24/13/2
f 8/49/4 31/14/4 4/16/4
f 11/9/2 12/8/2 15/18/2
f 34/97/5 35/19/5 12/21/5
f 9/33/4 36/22/4 11/24/4
f 10/35/1 35/25/1 9/27/1
f 19/98/2 37/28/2 20/30/2
f 12/21/6 10/20/6 16/32/6
f 13/84/7 9/33/7 15/34/7
f 14/86/1 10/35/1 13/36/1
f 17/99/8 19/37/8 18/39/8
f 38/83/9 39/40/9 20/38/9
f 17/99/10 40/41/10 19/37/10
f 39/100/1 40/43/1 18/45/1
f 41/87/2 42/46/2 27/48/2
f 24/101/11 8/49/11 22/50/11
f 3/102/12 7/51/12 21/53/12
f 4/3/1 3/2/1 22/55/1
f 26/103/13 25/56/13 28/58/13
f 28/104/14 42/59/14 26/61/14
f 44/105/15 41/62/15 25/64/15
f 26/106/1 43/65/1 25/67/1
f 29/94/1 1/68/1 30/1/1
f 6/78/2 5/70/2 32/6/2
f 2/107/16 6/72/16 30/74/16
f 31/108/4 5/75/4 29/77/4
f 5/70/2 6/78/2 33/79/2
f 6/109/17 2/80/17 34/82/17
f 36/22/4 1/76/4 33/23/4
f 35/25/1 2/69/1 36/26/1
f 15/18/2 16/17/2 37/28/2
f 16/32/18 14/31/18 38/83/18
f 40/110/19 13/84/19 37/85/19
f 39/100/1 14/86/1 40/43/1
f 23/96/2 24/13/2 41/87/2
f 42/111/20 24/88/20 43/90/20
f 21/112/21 23/91/21 44/93/21
f 43/65/1 22/55/1 44/66/1
