# Blender v2.71 (sub 0) OBJ File: 'cyl.blend'
# www.blender.org
mtllib cyl.mtl
o Cylinder
v 0.303566 0.063087 -0.454856
v 0.303566 2.063087 -0.454856
v 0.498656 0.063087 -0.435641
v 0.498656 2.063087 -0.435641
v 0.686249 0.063087 -0.378735
v 0.686249 2.063087 -0.378735
v 0.859136 0.063087 -0.286325
v 0.859136 2.063087 -0.286325
v 1.010672 0.063087 -0.161962
v 1.010672 2.063087 -0.161962
v 1.135035 0.063087 -0.010426
v 1.135035 2.063087 -0.010426
v 1.227445 0.063087 0.162461
v 1.227445 2.063087 0.162461
v 1.284351 0.063087 0.350054
v 1.284351 2.063087 0.350054
v 1.303566 0.063087 0.545144
v 1.303566 2.063087 0.545144
v 1.284351 0.063087 0.740235
v 1.284351 2.063087 0.740235
v 1.227445 0.063087 0.927828
v 1.227445 2.063087 0.927828
v 1.135035 0.063087 1.100715
v 1.135035 2.063087 1.100715
v 1.010672 0.063087 1.252251
v 1.010672 2.063087 1.252251
v 0.859136 0.063087 1.376614
v 0.859136 2.063087 1.376614
v 0.686249 0.063087 1.469024
v 0.686249 2.063087 1.469024
v 0.498656 0.063087 1.525930
v 0.498656 2.063087 1.525930
v 0.303565 0.063087 1.545145
v 0.303565 2.063087 1.545145
v 0.108475 0.063087 1.525930
v 0.108475 2.063087 1.525930
v -0.079118 0.063087 1.469024
v -0.079118 2.063087 1.469024
v -0.252005 0.063087 1.376614
v -0.252005 2.063087 1.376614
v -0.403542 0.063087 1.252251
v -0.403542 2.063087 1.252251
v -0.527904 0.063087 1.100714
v -0.527904 2.063087 1.100714
v -0.620314 0.063087 0.927827
v -0.620314 2.063087 0.927827
v -0.677220 0.063087 0.740234
v -0.677220 2.063087 0.740234
v -0.696434 0.063087 0.545144
v -0.696434 2.063087 0.545144
v -0.677219 0.063087 0.350053
v -0.677219 2.063087 0.350053
v -0.620313 0.063087 0.162460
v -0.620313 2.063087 0.162460
v -0.527903 0.063087 -0.010427
v -0.527903 2.063087 -0.010427
v -0.403540 0.063087 -0.161963
v -0.403540 2.063087 -0.161963
v -0.252003 0.063087 -0.286326
v -0.252003 2.063087 -0.286326
v -0.079116 0.063087 -0.378736
v -0.079116 2.063087 -0.378736
v 0.108477 0.063087 -0.435641
v 0.108477 2.063087 -0.435641
vt 0.595482 0.334407
vt 0.554686 0.334407
vt 0.554685 0.000000
vt 0.514673 0.334407
vt 0.514673 0.000000
vt 0.476982 0.334407
vt 0.476982 0.000000
vt 0.443061 0.334407
vt 0.443061 0.000000
vt 0.414213 0.334407
vt 0.414213 0.000000
vt 0.264046 1.000000
vt 0.230125 1.000000
vt 0.230125 0.665593
vt 0.192434 1.000000
vt 0.192434 0.665593
vt 0.152421 1.000000
vt 0.152421 0.665593
vt 0.111625 1.000000
vt 0.071612 1.000000
vt 0.071612 0.665593
vt 0.033921 1.000000
vt 0.033921 0.665593
vt 0.000000 1.000000
vt 0.000000 0.665593
vt 0.448134 0.334407
vt 0.450801 0.668814
vt 0.485825 0.334407
vt 0.485825 0.668814
vt 0.525838 0.334407
vt 0.525838 0.668814
vt 0.566635 0.334407
vt 0.566635 0.668814
vt 0.606647 0.334407
vt 0.606647 0.668814
vt 0.644338 0.334407
vt 0.644338 0.668814
vt 0.678259 0.334407
vt 0.678259 0.668814
vt 0.707107 0.334407
vt 0.707107 0.668814
vt 0.741028 0.334407
vt 0.741028 0.668814
vt 0.778719 0.334407
vt 0.778719 0.668814
vt 0.818731 0.334407
vt 0.818731 0.668814
vt 0.859528 0.334407
vt 0.859528 0.668814
vt 0.899540 0.334407
vt 0.899540 0.668814
vt 0.937231 0.334407
vt 0.937231 0.668814
vt 0.971152 0.334407
vt 0.971153 0.668814
vt 1.000000 0.334407
vt 1.000000 0.668814
vt 0.735954 0.334407
vt 0.707106 0.000000
vt 0.673185 0.334407
vt 0.673185 0.000000
vt 0.186708 0.332797
vt 0.414213 0.482806
vt 0.000000 0.515584
vt 0.635494 0.334407
vt 0.595482 0.000000
vt 0.635494 0.000000
vt 0.406254 0.117862
vt 0.267517 0.326402
vt 0.146696 0.006395
vt 0.264046 0.665593
vt 0.111625 0.665593
vt 0.414213 0.668814
vt 0.735954 0.000000
vt 0.146696 0.659199
vt 0.109005 0.646655
vt 0.186708 0.665593
vt 0.023571 0.578014
vt 0.075084 0.628445
vt 0.046237 0.605268
vt 0.007959 0.547732
vt 0.000000 0.482806
vt 0.007959 0.450658
vt 0.367977 0.393122
vt 0.227505 0.332797
vt 0.109005 0.351735
vt 0.075084 0.369945
vt 0.146696 0.339191
vt 0.267517 0.339191
vt 0.305209 0.351735
vt 0.339130 0.369945
vt 0.390642 0.420376
vt 0.406254 0.450658
vt 0.406254 0.547731
vt 0.390642 0.578014
vt 0.414213 0.515584
vt 0.367977 0.605268
vt 0.339130 0.628445
vt 0.305209 0.646655
vt 0.267518 0.659199
vt 0.227505 0.665593
vt 0.046236 0.393122
vt 0.023571 0.420376
vt 0.007959 0.214935
vt 0.000000 0.182787
vt 0.000000 0.150010
vt 0.007959 0.117862
vt 0.023571 0.087579
vt 0.146696 0.326402
vt 0.046236 0.060326
vt 0.109005 0.018938
vt 0.186708 0.000000
vt 0.227505 0.000000
vt 0.406254 0.214935
vt 0.414213 0.182787
vt 0.367977 0.060326
vt 0.339129 0.037148
vt 0.390642 0.087579
vt 0.414213 0.150009
vt 0.390642 0.245217
vt 0.339129 0.295648
vt 0.367977 0.272471
vt 0.305208 0.313859
vt 0.075084 0.295648
vt 0.046236 0.272471
vt 0.023571 0.245217
vt 0.305208 0.018938
vt 0.267517 0.006395
vt 0.109005 0.313858
vt 0.075084 0.037148
vn 0.000000 0.685700 -0.727900
vn 0.142000 0.685700 -0.713900
vn 0.142000 -0.685700 -0.713900
vn 0.278500 0.685700 -0.672500
vn 0.278500 -0.685700 -0.672500
vn 0.404400 0.685700 -0.605200
vn 0.404400 -0.685700 -0.605200
vn 0.514700 0.685700 -0.514700
vn 0.514700 -0.685700 -0.514700
vn 0.605200 0.685700 -0.404400
vn 0.605200 -0.685700 -0.404400
vn 0.672500 0.685700 -0.278500
vn 0.672500 -0.685700 -0.278500
vn 0.713900 0.685700 -0.142000
vn 0.713900 -0.685700 -0.142000
vn 0.727900 0.685700 0.000000
vn 0.727900 -0.685700 0.000000
vn 0.713900 0.685700 0.142000
vn 0.672500 0.685700 0.278500
vn 0.672500 -0.685700 0.278500
vn 0.605200 0.685700 0.404400
vn 0.605200 -0.685700 0.404400
vn 0.514700 0.685700 0.514700
vn 0.514700 -0.685700 0.514700
vn 0.404400 0.685700 0.605200
vn 0.404400 -0.685700 0.605200
vn 0.278500 0.685700 0.672500
vn 0.278500 -0.685700 0.672500
vn 0.142000 0.685700 0.713900
vn 0.142000 -0.685700 0.713900
vn 0.000000 0.685700 0.727900
vn 0.000000 -0.685700 0.727900
vn -0.142000 0.685700 0.713900
vn -0.142000 -0.685700 0.713900
vn -0.278500 0.685700 0.672500
vn -0.278500 -0.685700 0.672500
vn -0.404400 0.685700 0.605200
vn -0.404400 -0.685700 0.605200
vn -0.514700 0.685700 0.514700
vn -0.514700 -0.685700 0.514700
vn -0.605200 0.685700 0.404400
vn -0.605200 -0.685700 0.404400
vn -0.672500 0.685700 0.278500
vn -0.672500 -0.685700 0.278500
vn -0.713900 0.685700 0.142000
vn -0.713900 -0.685700 0.142000
vn -0.727900 0.685700 0.000000
vn -0.727900 -0.685700 0.000000
vn -0.713900 0.685700 -0.142000
vn -0.713900 -0.685700 -0.142000
vn -0.672500 0.685700 -0.278500
vn -0.672500 -0.685700 -0.278500
vn -0.605200 0.685700 -0.404400
vn -0.605200 -0.685700 -0.404400
vn -0.514700 0.685700 -0.514700
vn -0.514700 -0.685700 -0.514700
vn -0.404400 0.685700 -0.605200
vn -0.404400 -0.685700 -0.605200
vn -0.278500 0.685700 -0.672500
vn -0.278500 -0.685700 -0.672500
vn -0.142000 0.685700 -0.713900
vn 0.000000 -0.685700 -0.727900
vn -0.142000 -0.685700 -0.713900
vn 0.713900 -0.685700 0.142000
usemtl Material.001
s 1
f 2/1/1 4/2/2 3/3/3
f 4/2/2 6/4/4 5/5/5
f 6/4/4 8/6/6 7/7/7
f 8/6/6 10/8/8 9/9/9
f 10/8/8 12/10/10 11/11/11
f 12/12/10 14/13/12 13/14/13
f 13/14/13 14/13/12 16/15/14
f 15/16/15 16/15/14 18/17/16
f 17/18/17 18/17/16 20/19/18
f 20/19/18 22/20/19 21/21/20
f 22/20/19 24/22/21 23/23/22
f 24/22/21 26/24/23 25/25/24
f 26/10/23 28/26/25 27/27/26
f 28/26/25 30/28/27 29/29/28
f 30/28/27 32/30/29 31/31/30
f 32/30/29 34/32/31 33/33/32
f 34/32/31 36/34/33 35/35/34
f 36/34/33 38/36/35 37/37/36
f 38/36/35 40/38/37 39/39/38
f 40/38/37 42/40/39 41/41/40
f 42/40/39 44/42/41 43/43/42
f 44/42/41 46/44/43 45/45/44
f 46/44/43 48/46/45 47/47/46
f 48/46/45 50/48/47 49/49/48
f 50/48/47 52/50/49 51/51/50
f 52/50/49 54/52/51 53/53/52
f 54/52/51 56/54/53 55/55/54
f 56/54/53 58/56/55 57/57/56
f 58/58/55 60/40/57 59/59/58
f 60/40/57 62/60/59 61/61/60
f 38/62/35 22/63/19 54/64/51
f 64/65/61 2/1/1 1/66/62
f 62/60/59 64/65/61 63/67/63
f 31/68/30 47/69/46 15/70/15
f 1/66/62 2/1/1 3/3/3
f 3/3/3 4/2/2 5/5/5
f 5/5/5 6/4/4 7/7/7
f 7/7/7 8/6/6 9/9/9
f 9/9/9 10/8/8 11/11/11
f 11/71/11 12/12/10 13/14/13
f 15/16/15 13/14/13 16/15/14
f 17/18/17 15/16/15 18/17/16
f 19/72/64 17/18/17 20/19/18
f 19/72/64 20/19/18 21/21/20
f 21/21/20 22/20/19 23/23/22
f 23/23/22 24/22/21 25/25/24
f 25/73/24 26/10/23 27/27/26
f 27/27/26 28/26/25 29/29/28
f 29/29/28 30/28/27 31/31/30
f 31/31/30 32/30/29 33/33/32
f 33/33/32 34/32/31 35/35/34
f 35/35/34 36/34/33 37/37/36
f 37/37/36 38/36/35 39/39/38
f 39/39/38 40/38/37 41/41/40
f 41/41/40 42/40/39 43/43/42
f 43/43/42 44/42/41 45/45/44
f 45/45/44 46/44/43 47/47/46
f 47/47/46 48/46/45 49/49/48
f 49/49/48 50/48/47 51/51/50
f 51/51/50 52/50/49 53/53/52
f 53/53/52 54/52/51 55/55/54
f 55/55/54 56/54/53 57/57/56
f 57/74/56 58/58/55 59/59/58
f 59/59/58 60/40/57 61/61/60
f 2/75/1 64/76/61 4/77/2
f 64/76/61 58/78/55 54/64/51
f 62/79/59 60/80/57 58/78/55
f 58/78/55 56/81/53 54/64/51
f 54/64/51 52/82/49 50/83/47
f 28/84/25 38/62/35 36/85/33
f 42/86/39 38/62/35 44/87/41
f 42/86/39 40/88/37 38/62/35
f 34/89/31 32/90/29 36/85/33
f 30/91/27 28/84/25 32/90/29
f 26/92/23 22/63/19 28/84/25
f 26/92/23 24/93/21 22/63/19
f 18/94/16 16/95/14 20/96/18
f 14/97/12 22/63/19 16/95/14
f 14/97/12 12/98/10 10/99/8
f 10/99/8 8/100/6 6/101/4
f 64/76/61 62/79/59 58/78/55
f 6/101/4 64/76/61 54/64/51
f 46/102/43 44/87/41 48/103/45
f 44/87/41 38/62/35 48/103/45
f 32/90/29 28/84/25 36/85/33
f 28/84/25 22/63/19 38/62/35
f 16/95/14 22/63/19 20/96/18
f 6/101/4 22/63/19 10/99/8
f 22/63/19 14/97/12 10/99/8
f 54/64/51 48/103/45 38/62/35
f 64/76/61 6/101/4 4/77/2
f 54/64/51 50/83/47 48/103/45
f 63/67/63 64/65/61 1/66/62
f 61/61/60 62/60/59 63/67/63
f 22/63/19 6/101/4 54/64/51
f 63/104/63 1/105/62 3/106/3
f 3/106/3 5/107/5 7/108/7
f 47/69/46 51/62/50 53/109/52
f 15/70/15 9/110/9 13/111/13
f 15/70/15 17/112/17 19/113/64
f 37/114/36 47/69/46 35/115/34
f 27/116/26 31/68/30 25/117/24
f 27/116/26 29/118/28 31/68/30
f 31/68/30 33/119/32 35/115/34
f 37/114/36 39/120/38 43/121/42
f 39/120/38 41/122/40 43/121/42
f 43/121/42 45/123/44 47/69/46
f 47/69/46 49/85/48 51/62/50
f 53/109/52 57/124/56 63/104/63
f 47/69/46 31/68/30 35/115/34
f 59/125/58 61/126/60 63/104/63
f 63/104/63 3/106/3 7/108/7
f 9/110/9 15/70/15 63/104/63
f 23/127/22 25/117/24 21/128/20
f 25/117/24 31/68/30 21/128/20
f 57/124/56 59/125/58 63/104/63
f 47/69/46 37/114/36 43/121/42
f 53/109/52 55/129/54 57/124/56
f 7/108/7 9/110/9 63/104/63
f 15/70/15 21/128/20 31/68/30
f 9/110/9 11/130/11 13/111/13
f 53/109/52 63/104/63 15/70/15
f 15/70/15 19/113/64 21/128/20
f 47/69/46 53/109/52 15/70/15
