# Blender v2.71 (sub 0) OBJ File: 'labyrinth.blend'
# www.blender.org
mtllib labyrinth.mtl
o Cube
v 3.000000 -0.500000 -3.000000
v 3.000000 -0.500000 3.000000
v -3.000000 -0.500000 2.999999
v -2.999999 -0.500000 -3.000001
v 3.000001 3.000000 -2.999999
v 2.999998 3.000000 3.000002
v -3.000001 3.000000 2.999999
v -3.000000 3.000000 -3.000000
v 1.725800 -0.500000 3.000000
v 3.000000 -0.500000 1.437918
v 1.764259 -0.500000 -3.000000
v 3.000000 -0.500000 0.072972
v 1.714864 2.998185 1.461899
v 2.999999 2.998186 1.437917
v 1.725799 2.998186 2.999999
v 2.999999 2.998186 2.999999
v 1.714865 -0.500000 1.461900
v 2.999999 2.998186 2.999999
v 1.725799 2.998186 2.999999
v 2.999999 2.998186 1.437917
v 1.714864 2.998185 1.461899
v 1.742943 -0.500000 0.122621
v 3.000001 2.996027 -3.000000
v 1.764260 2.996027 -3.000000
v 3.000001 2.996027 0.072972
v 1.742944 2.996027 0.122621
v 1.750986 -0.500000 -1.055544
v 0.115541 -0.500000 -3.000000
v 0.958637 -0.500000 -3.000000
v 0.024712 -0.500001 0.146097
v 0.055345 -0.500000 -1.015433
v -0.066758 -0.500000 3.000000
v 0.834795 -0.500000 3.000000
v 0.943614 -0.500000 -1.914704
v 0.090777 -0.500000 -1.917043
v -3.000000 -0.500000 -0.886679
v -3.000000 -0.500000 0.270417
v 0.819137 -0.500001 1.469217
v -0.057198 -0.500001 1.450849
v -1.235373 -0.500000 0.219029
v -1.169672 -0.500000 -0.968880
v -0.061893 -0.500000 2.211558
v -1.155333 -0.500000 3.000000
v 0.024711 2.999693 0.146097
v 0.055344 2.999694 -1.015434
v -0.066759 2.999694 2.999999
v 0.834794 2.999694 2.999999
v 0.943614 2.999694 -1.914705
v 0.090776 2.999694 -1.917044
v -3.000000 2.999694 -0.886680
v -3.000000 2.999694 0.270416
v 0.819136 2.999693 1.469216
v -0.057199 2.999693 1.450848
v -1.235374 2.999695 0.219028
v -1.169673 2.999694 -0.968881
v -0.061893 2.999694 2.211557
v -1.155333 2.999694 2.999999
v -3.000000 2.999694 1.209530
v -1.880080 2.999695 0.237803
v -1.159141 2.999693 2.241879
v -1.896197 2.999695 1.194654
v 3.000000 -0.500000 -3.119597
v -2.999999 -0.500000 -3.119598
v 3.000001 3.000000 -3.119595
v -3.000000 3.000000 -3.119597
v 1.764259 -0.500000 -3.119597
v -3.000000 -0.500000 1.209531
v -1.880079 -0.500000 0.237803
v -1.159141 -0.500001 2.241880
v 0.958636 2.999694 -3.000001
v 0.115540 2.999694 -3.000001
v 1.750985 2.999695 -1.055544
v 1.742943 2.999695 0.122620
v -1.896197 -0.500000 1.194655
v 0.115541 -0.500000 -3.119597
v 0.958637 -0.500000 -3.119597
v -1.599289 -0.500000 -3.119597
v -2.279848 -0.500000 -3.119597
v -1.553104 0.417650 -3.119597
v -2.218940 0.406470 -3.119599
v -0.862111 -0.500000 -3.000001
v -1.593282 -0.500000 -3.000001
v -0.871231 -0.500000 -3.119597
v -0.781778 2.995855 -1.946829
v -1.540209 2.995855 -1.944138
v -0.871231 2.995856 -3.119595
v -1.593282 2.995856 -2.999998
v -0.862111 2.995856 -2.999998
v -1.599289 2.995856 -3.119595
v -1.540209 -0.500001 -1.944140
v -0.781778 -0.500001 -1.946831
vt 0.884857 0.000000
vt 0.884857 0.200170
vt 0.815756 0.200170
vt 0.000000 0.000000
vt 0.557219 0.569333
vt 0.351928 0.693166
vt 0.557219 0.517771
vt 0.351928 0.006840
vt 0.557219 0.006840
vt 0.557219 0.127712
vt 0.279446 0.006840
vt 0.232192 0.006841
vt 0.232192 0.000000
vt 0.740366 0.200083
vt 0.740366 0.000000
vt 0.815756 0.000000
vt 0.647438 0.600090
vt 0.647438 0.800173
vt 0.557219 0.800173
vt 0.296913 0.550188
vt 0.296913 0.750272
vt 0.205291 0.750272
vt 0.632598 0.800173
vt 0.632598 0.889519
vt 0.557861 0.889519
vt 0.626320 0.000000
vt 0.740366 0.199960
vt 0.737460 0.399920
vt 0.737460 0.224157
vt 0.811192 0.221318
vt 0.810995 0.800050
vt 0.737230 0.800050
vt 0.737230 0.600090
vt 0.757489 0.399920
vt 0.829966 0.399920
vt 0.829966 0.599880
vt 0.557219 0.399920
vt 0.557219 0.199960
vt 0.737460 0.199960
vt 0.737230 0.800260
vt 0.523660 0.893336
vt 0.459285 0.893336
vt 0.459285 0.693166
vt 0.068820 0.693164
vt 0.136938 0.693164
vt 0.136938 0.893334
vt 0.810995 0.600090
vt 0.880646 0.600090
vt 0.880646 0.800260
vt 0.249910 0.801559
vt 0.205291 0.801291
vt 0.206369 0.751168
vt 0.781713 0.800050
vt 0.781713 1.000000
vt 0.737230 1.000000
vt 0.880284 0.320984
vt 0.812186 0.318324
vt 0.861212 0.320984
vt 0.861212 0.383065
vt 0.811192 0.383606
vt 0.351928 0.817763
vt 0.355782 0.749819
vt 0.393597 0.748745
vt 0.296156 0.864100
vt 0.251689 0.864318
vt 0.394542 0.694017
vt 0.955047 0.399920
vt 0.955047 0.600090
vt 0.898930 0.600090
vt 0.296913 0.750358
vt 0.346929 0.750358
vt 0.346929 0.950528
vt 0.205291 0.550188
vt 0.205291 0.350019
vt 0.312698 0.350019
vt 0.757489 0.600090
vt 0.658011 0.600090
vt 0.350524 0.350019
vt 0.350524 0.550188
vt 0.312698 0.550188
vt 0.999515 0.399920
vt 0.999515 0.600090
vt 0.658011 0.399920
vt 0.557219 0.600090
vt 0.348298 0.550188
vt 0.993745 0.600090
vt 0.993745 0.800260
vt 0.944297 0.800260
vt 0.948368 0.000000
vt 0.948368 0.200170
vt 0.201687 0.693164
vt 0.201687 0.893334
vt 0.944297 0.600090
vt 0.992985 0.000000
vt 0.992985 0.200170
vt 0.182741 0.006841
vt 0.182741 0.000000
vt 0.279446 0.000000
vt 0.351928 0.000000
vt 1.000000 0.000000
vt 1.000000 0.343178
vt 0.557219 0.000000
vt 0.523660 0.693166
vt 0.530675 0.693166
vt 0.530675 0.893353
vt 0.007018 0.693164
vt 0.068820 0.893114
vt 0.000000 0.693164
vt 0.000000 0.350019
vt 0.151467 0.610415
vt 0.042240 0.000000
vt 0.000000 0.006841
vt 0.125397 0.006840
vt 0.124862 0.000000
vt 0.647438 0.800260
vt 0.691876 0.802284
vt 0.691876 0.862751
vt 0.107357 0.123013
vt 0.179210 0.120351
vt 0.177413 0.186786
vt 0.649043 0.860652
vt 0.691875 0.869600
vt 0.898930 0.599870
vt 0.836983 0.599870
vt 0.836983 0.399920
vt 0.007018 0.893114
vt 0.557219 0.620292
vt 0.557219 0.693166
vt 0.557219 0.350012
vt 0.557219 0.455513
vt 0.351928 0.350012
vt 0.557219 0.247605
vt 0.815756 0.200083
vt 0.557219 0.193893
vt 0.557219 0.801545
vt 0.809942 0.399920
vt 0.757489 0.599880
vt 0.068820 0.893334
vt 0.810995 0.800260
vt 0.296156 0.750272
vt 0.296156 0.801837
vt 0.880284 0.222698
vt 0.811765 0.321651
vt 0.459285 0.813062
vt 0.459285 0.746880
vt 0.898930 0.399920
vt 0.296913 0.950528
vt 0.348298 0.750358
vt 0.992985 0.343178
vt 0.523660 0.893353
vt 0.205291 0.420692
vt 0.205291 0.571418
vt 0.205291 0.613056
vt 0.152123 0.648495
vt 0.205291 0.651978
vt 0.205291 0.693164
vt 0.205291 0.514984
vt 0.205291 0.466766
vt 0.082158 0.000000
vt 0.082511 0.006841
vt 0.278196 0.185443
vt 0.351928 0.182603
vt 0.351928 0.260673
vt 0.276549 0.262045
vt 0.277190 0.350019
vt 0.224929 0.350019
vt 0.172609 0.261413
vt 0.172334 0.304923
vt 0.107975 0.306657
vt 0.108198 0.350019
vt 0.000000 0.247610
vt 0.064743 0.246760
vt 0.065689 0.192031
vt 0.103504 0.190957
vt 0.085624 0.067232
vt 0.000000 0.127715
vt 0.130109 0.067078
vt 0.231311 0.068916
vt 0.224010 0.262463
vt 0.649225 0.867510
vt 0.181288 0.068782
vt 0.278667 0.118056
vt 0.000000 0.893114
vn -0.018700 -0.710000 -0.703900
vn -0.578800 -0.578400 -0.574800
vn -0.573200 -0.575800 0.583000
vn -0.447200 -0.000000 0.894500
vn 0.000000 -0.447200 0.894400
vn 0.000000 -0.442900 0.896600
vn -0.406400 -0.409100 0.817000
vn -0.000000 -0.000000 1.000000
vn -0.894400 0.447200 -0.000000
vn -0.707100 -0.707100 0.000000
vn -0.814300 -0.404600 0.416100
vn 0.301600 -0.903700 0.303700
vn -0.301100 -0.906100 0.297000
vn 0.000000 -0.707100 -0.707100
vn -0.567800 -0.585500 0.578500
vn -0.310900 0.000000 0.950400
vn 0.322200 0.000000 0.946700
vn 0.307400 -0.903200 0.299600
vn 0.448500 0.000000 0.893800
vn -1.000000 -0.000000 0.000000
vn 0.000000 -0.448800 0.893600
vn 0.581300 -0.579000 0.571600
vn 0.575200 -0.577700 0.579100
vn 0.000000 -0.449800 0.893100
vn -0.577300 -0.577300 0.577300
vn -0.587500 -0.579400 -0.564800
vn 0.569000 -0.574900 -0.587900
vn -0.597200 -0.560100 -0.574100
vn 0.000000 -0.707100 0.707100
vn -0.308600 -0.900800 0.305300
vn -0.709400 -0.704800 0.007300
vn 0.310400 -0.901900 0.300400
vn 0.582600 -0.579100 0.570200
vn 0.310700 -0.900500 0.304100
vn 0.296300 -0.909200 -0.292600
vn 0.309800 -0.898600 0.310600
vn 0.575200 -0.580000 0.576800
vn -0.285100 -0.916000 0.282100
vn -0.312000 -0.894500 -0.320200
vn -0.567500 -0.581900 -0.582500
vn 0.569800 -0.576600 0.585500
vn -0.579600 -0.579000 0.573400
vn 0.301200 -0.899000 -0.317900
vn 0.560400 -0.579800 -0.591400
vn -0.601800 -0.573600 -0.555700
vn 0.582000 -0.575300 -0.574700
vn -0.581700 -0.576600 0.573700
vn -0.572300 -0.577900 -0.581800
vn 0.585200 -0.576300 -0.570400
vn -0.582900 -0.572300 0.576800
vn -0.311400 -0.899100 -0.307600
vn 0.706000 -0.708200 -0.003500
vn 0.586100 -0.578500 0.567200
vn -0.575500 -0.578900 -0.577500
vn -0.009600 -0.704100 -0.710100
vn -0.306300 -0.900900 -0.307300
vn -0.300900 -0.903200 -0.305900
vn 0.301700 -0.906900 -0.294100
vn 0.031300 -0.717000 0.696400
vn -0.579600 -0.579800 -0.572600
vn 0.570100 -0.578500 0.583300
vn 0.302000 -0.901800 0.309000
vn -0.817200 -0.409300 -0.405800
vn 0.294800 -0.906200 0.302900
vn 0.577300 -0.577300 -0.577300
vn 0.707100 0.707100 0.000000
vn 0.577300 0.577300 -0.577300
vn -0.577300 0.577300 -0.577300
vn -0.577300 -0.577300 -0.577300
vn -0.705000 -0.707100 0.053800
vn -0.299900 -0.912900 -0.276900
vn 0.000000 0.000000 -1.000000
vn 0.000000 -0.886700 -0.462300
vn -0.421300 -0.402100 -0.812900
vn 0.706200 -0.707100 -0.035500
vn 0.717600 -0.695500 -0.036000
vn 0.695000 -0.718100 -0.034900
vn 0.409500 -0.407700 0.816100
vn 0.409100 -0.407800 0.816200
vn -0.707100 -0.000000 0.707100
vn -0.000000 -1.000000 0.000000
vn -0.688200 -0.723600 0.052500
usemtl Material
s 1
f 22/1/1 73/2/2 72/3/3
f 16/4/4 18/4/5 20/4/6
f 33/5/7 6/6/8 32/7/8
f 8/8/9 4/9/10 36/10/11
f 11/11/12 29/12/13 76/13/14
f 10/14/15 14/15/16 13/16/17
f 17/17/18 13/18/17 15/19/19
f 2/20/20 16/21/4 14/22/16
f 20/23/6 18/24/5 19/25/21
f 27/26/22 11/15/12 24/27/23
f 15/4/19 19/4/21 18/4/5
f 13/4/17 21/4/24 19/4/21
f 14/4/16 20/4/6 21/4/24
f 23/28/25 25/29/26 26/30/27
f 12/31/28 22/32/1 26/33/27
f 11/34/12 1/35/29 23/36/25
f 12/37/28 25/38/26 23/39/25
f 38/17/30 33/33/7 47/40/31
f 69/41/32 42/42/33 56/43/34
f 30/44/35 31/45/36 45/46/37
f 41/47/38 40/48/39 54/49/40
f 56/50/34 53/51/41 52/52/42
f 90/53/43 85/54/44 84/55/45
f 44/56/46 45/57/37 72/30/3
f 70/58/47 48/59/48 49/60/49
f 55/61/50 54/62/40 59/63/51
f 57/64/52 60/65/53 56/50/34
f 59/63/51 61/66/54 58/43/55
f 74/67/56 61/68/54 59/69/51
f 34/70/57 35/71/58 49/72/49
f 41/73/38 55/74/50 50/75/59
f 27/34/22 72/76/3 45/77/37
f 68/78/60 59/79/51 54/80/40
f 69/81/32 60/82/53 57/68/52
f 30/83/35 44/77/46 73/84/2
f 38/70/30 52/20/42 53/85/41
f 29/86/13 70/87/47 71/88/61
f 35/1/58 28/89/62 71/90/61
f 67/91/63 58/92/55 61/46/54
f 34/49/57 48/48/48 70/93/47
f 39/94/64 53/95/41 56/90/34
f 28/96/62 75/97/14 76/13/14
f 11/11/12 66/98/14 62/99/65
f 5/94/66 64/100/67 65/101/68
f 8/8/9 65/99/68 63/102/69
f 1/103/29 62/104/65 64/105/67
f 81/106/70 91/44/71 84/107/45
f 65/108/68 64/109/67 79/110/72
f 63/4/69 78/111/73 4/112/10
f 28/96/62 81/113/70 83/114/74
f 84/115/45 85/116/44 87/117/75
f 41/118/38 31/119/36 30/120/35
f 88/121/70 87/117/75 89/122/76
f 90/123/43 82/124/75 87/125/75
f 83/108/74 81/106/70 88/126/70
f 77/36/77 89/35/76 87/125/75
f 27/16/22 22/1/1 72/3/3
f 14/4/16 16/4/4 20/4/6
f 9/127/78 2/128/8 6/6/8
f 3/129/25 43/130/79 7/131/80
f 67/132/63 3/129/25 7/131/80
f 33/5/7 9/127/78 6/6/8
f 17/133/18 10/14/15 13/16/17
f 32/7/8 6/6/8 7/131/80
f 43/130/79 32/7/8 7/131/80
f 37/134/20 8/8/9 36/10/11
f 37/134/20 67/132/63 7/131/80
f 66/98/14 11/11/12 76/13/14
f 37/134/20 7/131/80 8/8/9
f 9/84/78 17/17/18 15/19/19
f 10/73/15 2/20/20 14/22/16
f 21/135/24 20/23/6 19/25/21
f 26/38/27 22/102/1 27/26/22
f 16/4/4 15/4/19 18/4/5
f 27/26/22 24/27/23 26/38/27
f 15/4/19 13/4/17 19/4/21
f 13/4/17 14/4/16 21/4/24
f 24/136/23 23/28/25 26/30/27
f 25/47/26 12/31/28 26/33/27
f 24/137/23 11/34/12 23/36/25
f 1/28/29 12/37/28 23/39/25
f 52/115/42 38/17/30 47/40/31
f 60/103/53 69/41/32 56/43/34
f 44/138/46 30/44/35 45/46/37
f 55/139/50 41/47/38 54/49/40
f 47/140/31 46/141/81 56/50/34
f 91/32/71 90/53/43 84/55/45
f 56/50/34 52/52/42 47/140/31
f 73/142/2 44/56/46 72/30/3
f 71/143/61 70/58/47 49/60/49
f 55/61/50 59/63/51 50/144/59
f 46/141/81 57/64/52 56/50/34
f 51/145/81 59/63/51 58/43/55
f 59/63/51 51/145/81 50/144/59
f 68/146/60 74/67/56 59/69/51
f 48/147/48 34/70/57 49/72/49
f 36/80/11 41/73/38 50/75/59
f 31/83/36 27/34/22 45/77/37
f 40/75/39 68/78/60 54/80/40
f 43/67/79 69/81/32 57/68/52
f 22/37/1 30/83/35 73/84/2
f 39/148/64 38/70/30 53/85/41
f 28/93/62 29/86/13 71/88/61
f 49/2/49 35/1/58 71/90/61
f 74/45/56 67/91/63 61/46/54
f 29/88/13 34/49/57 70/93/47
f 42/89/33 39/94/64 56/90/34
f 29/12/13 28/96/62 76/13/14
f 1/8/29 11/11/12 62/99/65
f 8/149/9 5/94/66 65/101/68
f 4/9/10 8/8/9 63/102/69
f 5/150/66 1/103/29 64/105/67
f 88/126/70 81/106/70 84/107/45
f 62/74/65 66/151/14 64/109/67
f 83/152/74 77/153/72 79/110/72
f 80/154/72 78/155/73 63/156/69
f 75/97/14 28/96/62 83/114/74
f 75/157/14 64/109/67 76/158/14
f 75/157/14 83/152/74 79/110/72
f 80/154/72 63/156/69 65/108/68
f 64/109/67 66/151/14 76/158/14
f 79/110/72 80/154/72 65/108/68
f 78/111/73 77/159/77 82/160/75
f 64/109/67 75/157/14 79/110/72
f 88/121/70 84/115/45 87/117/75
f 78/111/73 82/160/75 4/112/10
f 22/161/1 12/162/28 10/163/15
f 17/164/18 9/165/78 33/166/7
f 39/167/64 42/168/33 69/169/32
f 69/169/32 43/170/79 3/109/25
f 3/109/25 67/171/63 74/172/56
f 74/172/56 68/173/60 40/174/39
f 4/112/10 90/175/43 36/176/11
f 4/112/10 82/160/75 90/175/43
f 91/177/71 81/113/70 28/96/62
f 34/178/57 29/12/13 11/11/12
f 10/163/15 17/164/18 22/161/1
f 17/164/18 33/166/7 38/179/30
f 3/109/25 74/172/56 69/169/32
f 40/174/39 39/167/64 74/172/56
f 86/180/82 88/121/70 89/122/76
f 91/177/71 28/96/62 35/181/58
f 34/178/57 11/11/12 27/182/22
f 30/120/35 39/167/64 40/174/39
f 39/167/64 30/120/35 38/179/30
f 74/172/56 39/167/64 69/169/32
f 41/118/38 90/175/43 91/177/71
f 27/182/22 31/119/36 34/178/57
f 31/119/36 35/181/58 34/178/57
f 41/118/38 30/120/35 40/174/39
f 35/181/58 31/119/36 91/177/71
f 38/179/30 30/120/35 22/161/1
f 31/119/36 41/118/38 91/177/71
f 85/146/44 90/123/43 87/125/75
f 90/175/43 41/118/38 36/176/11
f 17/164/18 38/179/30 22/161/1
f 86/183/82 83/108/74 88/126/70
f 82/124/75 77/36/77 87/125/75
